<svg width="238" height="198" viewBox="0 0 238 198" fill="none" xmlns="http://www.w3.org/2000/svg">
<path d="M85.9096 115.81L86.6488 115.07C88.8664 112.853 89.2771 109.239 87.3059 106.775C81.4743 99.3005 78.5175 90.43 78.5175 82.1345C78.5175 73.264 81.3922 64.3935 87.0595 57.4121C89.1128 54.948 88.7843 51.252 86.4845 49.0344L85.9096 48.4594C83.117 45.6669 78.5175 45.9954 76.0535 49.1165C68.5793 58.8084 64.5547 70.4714 64.5547 82.1345C64.5547 93.7976 68.5793 105.461 76.0535 115.152C78.5175 118.274 83.117 118.602 85.9096 115.81ZM173.054 28.6651L172.397 29.3222C169.933 31.7862 170.015 35.5644 172.151 38.1927C182.499 50.7592 187.756 66.7754 187.756 82.1345C187.756 97.4936 182.582 113.428 172.151 126.076C169.851 128.787 170.261 132.893 172.808 135.44C175.682 138.314 180.446 137.986 182.992 134.865C195.887 119.423 201.719 101.108 201.719 82.1345C201.719 63.0793 195.23 44.7634 182.746 29.3222C180.282 26.2832 175.764 25.9546 173.054 28.6651Z" fill="#9E9E9F"/>
<path d="M66.7516 29.3222L66.0945 28.6651C63.3841 25.9546 58.8667 26.2832 56.4027 29.3222C43.9183 44.7634 37.4297 63.0793 37.4297 82.1345C37.4297 101.19 43.9183 119.506 56.4027 134.947C58.8667 137.986 63.3841 138.396 66.0945 135.604L66.7516 134.947C69.2156 132.483 69.1335 128.705 66.998 126.076C56.567 113.428 51.3925 97.4936 51.3925 82.1345C51.3925 66.7754 56.567 50.8413 66.998 38.1927C69.1335 35.5644 69.2156 31.7862 66.7516 29.3222ZM152.993 115.563C155.949 118.52 160.795 118.191 163.341 114.824C170.734 105.132 174.594 93.6333 174.594 82.1345C173.937 70.5536 170.405 58.8905 163.095 49.1986C162.535 48.4473 161.821 47.8249 161 47.3735C160.178 46.9221 159.27 46.6522 158.336 46.5822C157.401 46.5121 156.463 46.6434 155.583 46.9673C154.704 47.2911 153.905 47.8 153.239 48.4594L152.582 49.1165C150.364 51.3341 149.954 54.948 151.925 57.4121C157.674 64.9684 160.631 73.8389 160.631 82.1345C160.631 90.9228 157.839 99.6291 152.336 106.61C150.2 109.239 150.529 113.099 152.993 115.563ZM140.098 82.1345C140.098 68.993 127.695 58.7262 113.979 62.3401C107.408 64.0649 101.987 69.3215 100.016 75.8923C97.3877 84.5985 100.509 92.6477 106.258 97.5757L81.9465 170.429C80.2216 175.521 83.9998 180.696 89.3385 180.696C92.706 180.696 95.6629 178.56 96.7306 175.357L100.427 164.269H138.783L142.479 175.357C142.783 176.352 143.282 177.277 143.949 178.076C144.615 178.875 145.435 179.533 146.36 180.01C147.284 180.487 148.295 180.775 149.332 180.855C150.37 180.936 151.413 180.807 152.4 180.478C153.387 180.149 154.298 179.626 155.08 178.939C155.862 178.252 156.498 177.416 156.951 176.479C157.405 175.543 157.666 174.525 157.719 173.486C157.773 172.446 157.618 171.407 157.264 170.429L132.952 97.5757C137.305 93.7975 140.098 88.3767 140.098 82.1345ZM105.848 147.842L119.564 106.775L133.28 147.842H105.848Z" fill="#9E9E9F"/>
<path d="M10.5352 103.794L227.718 60.1833" stroke="#9E9E9F" stroke-width="19.1889" stroke-linecap="round"/>
</svg>
