<svg width="327" height="358" viewBox="0 0 327 358" fill="none" xmlns="http://www.w3.org/2000/svg">
<g opacity="0.3">
<line x1="31.0803" y1="-43" x2="31.0802" y2="443.001" stroke="#616162" stroke-width="0.300186"/>
<line x1="76.1081" y1="-43" x2="76.1081" y2="443.001" stroke="#616162" stroke-width="0.300186"/>
<line x1="121.136" y1="-43" x2="121.136" y2="443.001" stroke="#616162" stroke-width="0.300186"/>
<line x1="166.164" y1="-43" x2="166.164" y2="443.001" stroke="#616162" stroke-width="0.300186"/>
<line x1="211.192" y1="-43" x2="211.192" y2="443.001" stroke="#616162" stroke-width="0.300186"/>
<line x1="256.22" y1="-43" x2="256.22" y2="443.001" stroke="#616162" stroke-width="0.300186"/>
<line x1="301.248" y1="-43" x2="301.248" y2="443.001" stroke="#616162" stroke-width="0.300186"/>
<line x1="571.265" y1="21.6896" x2="-260.851" y2="21.6896" stroke="#616162" stroke-width="0.300186"/>
<line x1="571.265" y1="67.7175" x2="-260.851" y2="67.7174" stroke="#616162" stroke-width="0.300186"/>
<line x1="571.265" y1="113.746" x2="-260.851" y2="113.746" stroke="#616162" stroke-width="0.300186"/>
<line x1="571.265" y1="159.774" x2="-260.851" y2="159.774" stroke="#616162" stroke-width="0.300186"/>
<line x1="571.265" y1="205.801" x2="-260.851" y2="205.801" stroke="#616162" stroke-width="0.300186"/>
<line x1="571.265" y1="251.829" x2="-260.851" y2="251.829" stroke="#616162" stroke-width="0.300186"/>
<line x1="571.265" y1="297.857" x2="-260.851" y2="297.857" stroke="#616162" stroke-width="0.300186"/>
<line x1="571.265" y1="343.885" x2="-260.851" y2="343.885" stroke="#616162" stroke-width="0.300186"/>
</g>
</svg>
