<svg width="316" height="352" viewBox="0 0 316 352" fill="none" xmlns="http://www.w3.org/2000/svg">
<path d="M332.708 235.118C327.085 190.891 411.2 171.348 407.513 114.572C404.048 104.937 392.025 86.4073 371.655 89.3671C346.192 93.0669 303.032 73.5606 309.384 32.3852C315.737 -8.7902 248.279 1.67938 179.669 24.8186C111.059 47.9579 95.7786 14.285 61.3889 83.6547C26.9992 153.025 109.209 143.225 46.0218 183.26C-17.1651 223.295 4.24841 235.431 26.7222 308.355C49.196 381.278 40.5957 387.579 88.9529 389.018C137.31 390.456 181.961 382.089 213.12 390.911C244.279 399.733 295.303 373.479 317.159 335.9C339.016 298.321 338.33 279.345 332.708 235.118Z" stroke="url(#paint0_linear_1035_7354)" stroke-width="7"/>
<defs>
<linearGradient id="paint0_linear_1035_7354" x1="391.106" y1="229.367" x2="13.3317" y2="171.084" gradientUnits="userSpaceOnUse">
<stop stop-color="#793884"/>
<stop offset="0.591667" stop-color="#F6AB33"/>
</linearGradient>
</defs>
</svg>
