<svg width="263" height="317" viewBox="0 0 263 317" fill="none" xmlns="http://www.w3.org/2000/svg">
<path d="M167.912 80.3702L98.5635 92.5963L128.035 147.382L46.8 162.795L94.9258 257.684L40.6648 265.354" stroke="url(#paint0_linear_12_47)" stroke-width="10.8969"/>
<path d="M71.9614 279.241C78.2421 290.259 69.6774 302.778 52.7422 307.102C35.7762 311.44 17.0966 305.846 11.1084 294.711C5.18418 283.689 13.958 271.41 30.63 267.19C47.2804 262.981 65.7447 268.334 71.9614 279.241Z" fill="#F49C0F"/>
<path d="M53.2006 284.926C55.2034 289.227 51.6259 293.641 45.1978 294.77C38.7696 295.899 31.9509 293.31 29.9895 288.994C28.0281 284.679 31.6398 280.318 38.0314 279.201C44.423 278.084 51.2046 280.641 53.2006 284.926Z" fill="#E4E4E5"/>
<path d="M47.7321 285.884C48.7838 288.159 46.8898 290.485 43.4984 291.081C40.1071 291.676 36.5078 290.31 35.467 288.035C34.4262 285.759 36.3304 283.446 39.7123 282.853C43.0941 282.26 46.6814 283.618 47.7321 285.884Z" fill="#F7B54B"/>
<path d="M202.399 92.3649C208.729 101.588 201.374 112.208 185.889 116.014C170.375 119.827 152.809 115.307 146.722 105.991C140.693 96.7625 148.242 86.3243 163.504 82.6047C178.752 78.8915 196.13 83.2291 202.399 92.3649Z" fill="#793884"/>
<path d="M185.221 97.4021C187.3 101.032 184.229 104.777 178.354 105.756C172.479 106.734 166.042 104.569 164 100.929C161.958 97.2883 165.06 93.581 170.904 92.6133C176.749 91.6455 183.152 93.7837 185.221 97.4021Z" fill="#E4E4E5"/>
<path d="M180.221 98.2326C181.314 100.151 179.689 102.129 176.588 102.642C173.487 103.154 170.092 102.018 169.008 100.096C167.925 98.1749 169.56 96.2101 172.652 95.6971C175.744 95.1842 179.132 96.3188 180.221 98.2326Z" fill="#A36CAD"/>
<path d="M14.7111 256.637C9.38729 250.6 5.95956 243.113 4.86141 235.122C3.76325 227.132 5.04397 218.998 8.54166 211.748C12.0394 204.498 17.5969 198.458 24.5115 194.392C31.4261 190.326 39.3872 188.417 47.3881 188.905C55.389 189.394 63.0703 192.258 69.4607 197.137C75.8511 202.015 80.6635 208.688 83.2895 216.312C85.9154 223.935 86.237 232.168 84.2134 239.967C82.1898 247.767 77.912 254.784 71.9209 260.13L41.5948 287.125L14.7111 256.637ZM45.7694 216.51C43.2437 216.356 40.7307 216.959 38.5479 218.242C36.3652 219.526 34.6108 221.433 33.5067 223.721C32.4026 226.01 31.9982 228.578 32.3449 231.1C32.6916 233.622 33.7736 235.986 35.4542 237.891C37.1348 239.797 39.3385 241.16 41.7866 241.807C44.2347 242.454 46.8172 242.356 49.2076 241.526C51.598 240.696 53.6889 239.171 55.2159 237.144C56.7429 235.117 57.6375 232.679 57.7864 230.138C57.9823 226.731 56.8271 223.383 54.5743 220.829C52.3214 218.274 49.1549 216.721 45.7694 216.51Z" fill="#E4E4E5"/>
<path d="M71.1082 206.309C64.9553 199.332 56.3038 195.095 47.057 194.53C37.8102 193.965 28.7255 197.12 21.8015 203.299C14.8775 209.478 10.6813 218.175 10.1361 227.478C9.59082 236.782 12.7412 245.928 18.8941 252.905L42.0646 279.179L68.1977 255.916C71.6269 252.857 74.4224 249.147 76.4246 244.998C78.4269 240.85 79.5965 236.343 79.8668 231.737C80.1371 227.13 79.5027 222.513 77.9999 218.151C76.497 213.788 74.1553 209.764 71.1082 206.309ZM43.9342 247.838C40.3022 247.617 36.8152 246.317 33.9142 244.102C31.0131 241.888 28.8283 238.859 27.6361 235.398C26.4438 231.938 26.2977 228.201 27.2161 224.66C28.1345 221.119 30.0763 217.934 32.7958 215.507C35.5153 213.08 38.8904 211.52 42.4944 211.024C46.0983 210.529 49.7692 211.12 53.0428 212.723C56.3164 214.326 59.0456 216.87 60.8854 220.031C62.7252 223.192 63.5929 226.83 63.3787 230.484C63.0904 235.383 60.88 239.962 57.2336 243.215C53.5873 246.469 48.8036 248.129 43.9346 247.832L43.9342 247.838Z" fill="url(#paint1_linear_12_47)"/>
<path d="M149.996 71.7974C145.126 66.2748 141.991 59.4261 140.987 52.1175C139.983 44.8088 141.154 37.3683 144.354 30.737C147.553 24.1056 152.637 18.5811 158.962 14.8621C165.287 11.1431 172.569 9.39661 179.887 9.84345C187.205 10.2903 194.231 12.9104 200.077 17.3725C205.922 21.8346 210.324 27.9382 212.726 34.9116C215.128 41.885 215.423 49.415 213.572 56.5493C211.721 63.6837 207.809 70.102 202.329 74.9928L174.59 99.6832L149.996 71.7974ZM178.401 35.0864C176.091 34.945 173.791 35.4962 171.794 36.6703C169.797 37.8444 168.192 39.5886 167.181 41.6824C166.171 43.7762 165.801 46.1255 166.118 48.4332C166.435 50.7409 167.425 52.9033 168.963 54.647C170.5 56.3906 172.517 57.6372 174.756 58.229C176.996 58.8209 179.359 58.7314 181.546 57.972C183.733 57.2125 185.646 55.8171 187.043 53.9624C188.44 52.1076 189.258 49.8767 189.394 47.5519C189.573 44.4359 188.516 41.3736 186.455 39.0367C184.394 36.6999 181.498 35.2792 178.401 35.0864Z" fill="#E4E4E5"/>
<path d="M201.583 25.7592C195.954 19.376 188.039 15.4998 179.58 14.9833C171.121 14.4668 162.81 17.3524 156.476 23.0051C150.141 28.6579 146.303 36.6148 145.804 45.1255C145.305 53.6362 148.187 62.0035 153.816 68.3867L175.012 92.4214L198.917 71.1404C202.055 68.3426 204.613 64.9491 206.445 61.1539C208.278 57.3587 209.348 53.2361 209.596 49.0218C209.843 44.8074 209.263 40.5838 207.888 36.5923C206.513 32.6008 204.371 28.9197 201.583 25.7592ZM176.722 63.7421C173.4 63.5392 170.21 62.3497 167.557 60.324C164.903 58.2982 162.905 55.5272 161.814 52.3614C160.724 49.1956 160.59 45.7771 161.43 42.5382C162.271 39.2994 164.047 36.3856 166.535 34.1655C169.023 31.9453 172.11 30.5184 175.407 30.0653C178.704 29.6121 182.062 30.153 185.057 31.6196C188.051 33.0862 190.548 35.4126 192.231 38.3046C193.914 41.1966 194.707 44.5244 194.511 47.867C194.249 52.3494 192.227 56.5401 188.891 59.5172C185.555 62.4944 181.178 64.0141 176.722 63.7421Z" fill="url(#paint2_linear_12_47)"/>
<defs>
<linearGradient id="paint0_linear_12_47" x1="110.028" y1="76.9076" x2="98.5484" y2="268.817" gradientUnits="userSpaceOnUse">
<stop stop-color="#793884"/>
<stop offset="0.591667" stop-color="#F6AB33"/>
</linearGradient>
<linearGradient id="paint1_linear_12_47" x1="47.0132" y1="195.304" x2="41.8762" y2="279.438" gradientUnits="userSpaceOnUse">
<stop offset="0.003" stop-color="#F49C0F"/>
<stop offset="1" stop-color="#F7B54B"/>
</linearGradient>
<linearGradient id="paint2_linear_12_47" x1="179.545" y1="15.6943" x2="174.846" y2="92.6547" gradientUnits="userSpaceOnUse">
<stop stop-color="#712C7D"/>
<stop offset="0.997" stop-color="#995CA4"/>
</linearGradient>
</defs>
</svg>
