<svg width="264" height="317" viewBox="0 0 264 317" fill="none" xmlns="http://www.w3.org/2000/svg">
<path d="M168.429 80.3906L99.0809 92.6167L128.553 147.402L47.3173 162.816L95.4431 257.704L41.1822 265.374" stroke="url(#paint0_linear_1035_7408)" stroke-width="10.8969"/>
<path d="M72.4789 279.262C78.7596 290.28 70.1948 302.798 53.2597 307.123C36.2936 311.46 17.614 305.866 11.6258 294.731C5.70162 283.709 14.4755 271.431 31.1475 267.21C47.7978 263.001 66.2621 268.354 72.4789 279.262Z" fill="#F49C0F"/>
<path d="M53.718 284.946C55.7208 289.248 52.1433 293.662 45.7152 294.791C39.287 295.92 32.4683 293.331 30.5069 289.015C28.5455 284.699 32.1572 280.339 38.5488 279.221C44.9403 278.104 51.722 280.662 53.718 284.946Z" fill="#E4E4E5"/>
<path d="M48.2495 285.905C49.3012 288.179 47.4072 290.506 44.0158 291.101C40.6245 291.697 37.0252 290.331 35.9844 288.055C34.9436 285.78 36.8478 283.467 40.2297 282.874C43.6115 282.281 47.1988 283.638 48.2495 285.905Z" fill="#F7B54B"/>
<path d="M202.917 92.3855C209.247 101.608 201.891 112.229 186.406 116.035C170.893 119.848 153.327 115.328 147.24 106.012C141.21 96.7831 148.76 86.3449 164.021 82.6253C179.27 78.9121 196.647 83.2497 202.917 92.3855Z" fill="#793884"/>
<path d="M185.739 97.4224C187.817 101.052 184.746 104.798 178.871 105.776C172.996 106.755 166.559 104.589 164.517 100.949C162.475 97.3086 165.577 93.6013 171.422 92.6335C177.266 91.6658 183.669 93.804 185.739 97.4224Z" fill="#E4E4E5"/>
<path d="M180.738 98.2529C181.832 100.172 180.206 102.15 177.105 102.662C174.004 103.174 170.609 102.038 169.526 100.117C168.442 98.1953 170.078 96.2304 173.169 95.7174C176.261 95.2045 179.65 96.3391 180.738 98.2529Z" fill="#A36CAD"/>
<g style="mix-blend-mode:hard-light">
<path opacity="0.125" d="M76.2243 240.797C68.978 238.179 60.6925 239.703 57.6299 244.389C54.4114 249.311 58.1103 255.827 66.0262 258.687C73.9421 261.548 82.5375 259.475 85.071 254.305C87.4855 249.384 83.4722 243.416 76.2243 240.797ZM20.577 260.163C15.6976 250.146 16.8263 240.159 23.2731 232.098C29.3345 224.518 39.4191 219.5 51.5572 217.678C63.5797 215.983 75.839 217.275 87.2651 221.439C98.7596 225.597 108.306 232.225 114.325 240.363C120.593 248.838 122.488 258.185 119.311 266.806C115.932 275.977 107.239 283.232 94.5517 286.9L41.1126 302.284L20.577 260.163Z" fill="#7D7D7D"/>
<path opacity="0.25" d="M76.7117 239.943C68.7301 237.058 59.5801 238.712 56.1543 243.871C52.5352 249.319 56.6047 256.573 65.4149 259.756C74.2251 262.94 83.7646 260.603 86.5322 254.847C89.1553 249.399 84.6949 242.826 76.7117 239.943ZM22.3524 259.788C17.6087 250.121 18.6552 240.471 24.8452 232.666C30.6748 225.315 40.4138 220.439 52.1645 218.649C63.819 216.989 75.7074 218.233 86.7863 222.27C97.9371 226.297 107.185 232.737 113.003 240.634C119.052 248.852 120.853 257.899 117.74 266.229C114.436 275.079 106.004 282.061 93.7394 285.579L42.2487 300.291L22.3524 259.788Z" fill="#7A7A7A"/>
<path opacity="0.375" d="M77.2011 239.086C68.4872 235.936 58.4662 237.724 54.6805 243.353C50.6592 249.327 55.0979 257.318 64.807 260.827C74.516 264.336 84.9935 261.733 87.9936 255.39C90.8239 249.415 85.9179 242.237 77.2011 239.086ZM24.1312 259.413C19.5232 250.097 20.4845 240.784 26.4209 233.234C32.0169 226.111 41.414 221.371 52.7732 219.628C64.0604 218.003 75.5784 219.199 86.3104 223.11C97.1155 227.015 106.069 233.26 111.682 240.915C117.514 248.869 119.219 257.619 116.171 265.663C112.941 274.189 104.772 280.902 92.9205 284.27L43.3799 298.305L24.1312 259.413Z" fill="#767676"/>
<path opacity="0.5" d="M77.6882 238.231C68.2344 234.815 57.3535 236.733 53.2046 242.836C48.7828 249.335 53.592 258.064 64.197 261.896C74.8019 265.728 86.2204 262.862 89.4544 255.932C92.4918 249.432 87.1373 241.647 77.6882 238.231ZM25.9002 259.036C21.4278 250.072 22.3071 241.094 27.9866 233.799C33.3521 226.91 42.4041 222.305 53.3737 220.606C64.294 219.015 75.4426 220.164 85.8276 223.95C96.2873 227.731 104.944 233.78 110.355 241.192C115.969 248.886 117.577 257.34 114.593 265.093C111.438 273.299 103.532 279.739 92.109 282.957L44.517 296.317L25.9002 259.036Z" fill="#737373"/>
<path opacity="0.625" d="M78.1771 237.376C67.9879 233.695 56.2408 235.745 51.732 242.317C46.9096 249.344 52.0859 258.817 63.5886 262.966C75.0913 267.116 87.4489 263.992 90.9149 256.483C94.1614 249.447 88.3632 241.055 78.1771 237.376ZM27.6817 258.661C23.345 250.048 24.1408 241.405 29.5664 234.368C34.7002 227.704 43.4082 223.242 53.9882 221.586C64.5402 220.032 75.3173 221.134 85.3542 224.795C95.4699 228.449 103.832 234.306 109.037 241.471C114.434 248.904 115.95 257.059 113.028 264.524C109.946 272.406 102.303 278.577 91.3022 281.647L45.6588 294.33L27.6817 258.661Z" fill="#707070"/>
<path opacity="0.75" d="M78.6628 236.521C67.7399 232.574 55.1247 234.762 50.258 241.799C45.0349 249.352 50.5825 259.553 62.9803 264.038C75.3781 268.523 88.6727 265.122 92.3779 257.017C95.8295 249.463 89.5856 240.468 78.6628 236.521ZM29.4555 258.286C25.2543 250.024 25.9682 241.716 31.1291 234.936C36.0311 228.499 44.4 224.178 54.5856 222.565C64.7703 221.046 75.177 222.102 84.8668 225.637C94.637 229.168 102.702 234.829 107.706 241.758C112.884 248.931 114.304 256.789 111.448 263.959C108.439 271.52 101.058 277.42 90.4782 280.338L46.7833 292.345L29.4555 258.286Z" fill="#6D6D6D"/>
<path opacity="0.875" d="M79.1517 235.666C67.492 231.452 54.0128 233.764 48.7809 241.28C43.1587 249.359 49.0767 260.302 62.3675 265.105C75.6583 269.909 89.9013 266.25 93.8359 257.559C97.4977 249.477 90.8099 239.878 79.1517 235.666ZM31.231 257.908C27.1655 249.997 27.7956 242.027 32.7075 235.502C37.3807 229.295 45.3982 225.112 55.1987 223.543C65.0156 222.06 75.0514 223.068 84.3937 226.477C93.82 229.881 101.588 235.351 106.389 242.04C111.351 248.951 112.675 256.509 109.882 263.396C106.947 270.636 99.8305 276.263 89.6712 279.033L47.9283 290.36L31.231 257.908Z" fill="#696969"/>
<path d="M79.6393 234.81C67.2458 230.332 52.8988 232.775 47.307 240.762C41.2811 249.367 47.5681 261.048 61.7579 266.175C75.9476 271.302 91.1286 267.38 95.297 258.103C99.169 249.495 92.0311 239.289 79.6393 234.81ZM33.0068 257.529C29.077 249.968 29.6236 242.334 34.2817 236.064C38.7215 230.086 46.3951 226.042 55.8066 224.506C65.2558 223.059 74.9205 224.022 83.9152 227.304C92.9974 230.586 100.472 235.854 105.067 242.305C109.81 248.957 111.04 256.218 108.312 262.816C105.452 269.733 98.5962 275.089 88.8592 277.71L49.0583 288.365L33.0068 257.529Z" fill="#666666"/>
</g>
<path d="M15.2286 256.658C9.90473 250.62 6.477 243.133 5.37885 235.143C4.28069 227.153 5.56142 219.018 9.0591 211.768C12.5568 204.519 18.1143 198.479 25.0289 194.413C31.9435 190.347 39.9047 188.438 47.9055 188.926C55.9064 189.415 63.5877 192.279 69.9781 197.157C76.3685 202.036 81.181 208.709 83.8069 216.332C86.4329 223.956 86.7544 232.188 84.7308 239.988C82.7072 247.788 78.4294 254.804 72.4384 260.151L42.1123 287.146L15.2286 256.658ZM46.2868 216.531C43.7612 216.377 41.2481 216.98 39.0653 218.263C36.8826 219.547 35.1282 221.453 34.0241 223.742C32.92 226.03 32.5157 228.598 32.8624 231.12C33.209 233.643 34.2911 236.006 35.9717 237.912C37.6523 239.818 39.856 241.18 42.304 241.827C44.7521 242.474 47.3347 242.377 49.725 241.547C52.1154 240.717 54.2063 239.192 55.7334 237.165C57.2604 235.138 58.1549 232.699 58.3038 230.158C58.4998 226.752 57.3446 223.404 55.0917 220.849C52.8388 218.294 49.6723 216.742 46.2868 216.531Z" fill="#E4E4E5"/>
<path d="M71.6256 206.33C65.4727 199.352 56.8212 195.115 47.5744 194.551C38.3276 193.986 29.243 197.14 22.3189 203.319C15.3949 209.498 11.1987 218.196 10.6535 227.499C10.1082 236.802 13.2586 245.949 19.4115 252.926L42.582 279.2L68.7151 255.936C72.1443 252.877 74.9399 249.168 76.9421 245.019C78.9443 240.87 80.1139 236.364 80.3842 231.757C80.6545 227.151 80.0201 222.534 78.5173 218.171C77.0145 213.808 74.6727 209.785 71.6256 206.33ZM44.4516 247.859C40.8196 247.637 37.3326 246.337 34.4316 244.123C31.5305 241.909 29.3457 238.88 28.1535 235.419C26.9612 231.958 26.8151 228.221 27.7335 224.681C28.6519 221.14 30.5937 217.955 33.3132 215.528C36.0327 213.101 39.4079 211.541 43.0118 211.045C46.6158 210.55 50.2867 211.141 53.5602 212.744C56.8338 214.347 59.5631 216.89 61.4028 220.052C63.2426 223.213 64.1103 226.851 63.8961 230.505C63.6078 235.404 61.3974 239.983 57.7511 243.236C54.1047 246.489 49.321 248.15 44.452 247.853L44.4516 247.859Z" fill="url(#paint1_linear_1035_7408)"/>
<g style="mix-blend-mode:hard-light">
<path opacity="0.125" d="M214.125 46.2535C206.877 43.635 198.593 45.1589 195.529 49.8454C192.31 54.7672 196.011 61.2829 203.925 64.1431C211.84 67.0034 220.438 64.9307 222.972 59.7628C225.38 54.8399 221.366 48.8731 214.125 46.2535ZM158.471 65.6189C153.592 55.6017 154.721 45.6143 161.167 37.5541C167.229 29.9756 177.313 24.9573 189.452 23.1254C201.474 21.4304 213.733 22.7216 225.158 26.8864C236.654 31.0447 246.199 37.6726 252.218 45.8106C258.486 54.2855 260.389 63.6335 257.206 72.255C253.829 81.4248 245.136 88.6801 232.446 92.3474L179.009 107.737L158.471 65.6189Z" fill="#7D7D7D"/>
<path opacity="0.25" d="M214.606 45.3989C206.623 42.514 197.473 44.1684 194.048 49.3286C190.428 54.775 194.497 62.029 203.311 65.2128C212.124 68.3966 221.659 66.0596 224.426 60.305C227.048 54.8491 222.592 48.2824 214.606 45.3989ZM160.248 65.244C155.505 55.5773 156.549 45.9285 162.74 38.1225C168.569 30.7714 178.308 25.8952 190.057 24.1053C201.712 22.4443 213.601 23.6871 224.681 27.7244C235.831 31.7532 245.079 38.1919 250.896 46.0882C256.946 54.3065 258.746 63.3531 255.635 71.6839C252.329 80.5333 243.9 87.516 231.632 91.0334L180.143 105.745L160.248 65.244Z" fill="#7A7A7A"/>
<path opacity="0.375" d="M215.093 44.5403C206.379 41.3909 196.36 43.1771 192.574 48.808C188.553 54.7806 192.992 62.7713 202.699 66.2799C212.407 69.7885 222.886 67.1862 225.887 60.8449C228.716 54.8697 223.812 47.6916 215.093 44.5403ZM162.024 64.8662C157.416 55.55 158.377 46.2366 164.312 38.6865C169.911 31.5646 179.305 26.8241 190.664 25.0809C201.951 23.456 213.469 24.6524 224.201 28.5643C235.008 32.4684 243.961 38.7132 249.573 46.3679C255.406 54.3217 257.111 63.0736 254.062 71.1148C250.831 79.6438 242.665 86.3555 230.819 89.7229L181.278 103.759L162.024 64.8662Z" fill="#767676"/>
<path opacity="0.5" d="M215.581 43.6864C206.129 40.272 195.246 42.1888 191.099 48.2918C186.677 54.7907 191.485 63.5196 202.091 67.3518C212.698 71.1839 224.113 68.3189 227.349 61.3894C230.386 54.8949 225.035 47.1041 215.581 43.6864ZM163.793 64.4926C159.321 55.5269 160.198 46.549 165.879 39.2564C171.245 32.3665 180.297 27.762 191.266 26.0624C202.186 24.4718 213.333 25.6207 223.717 29.4069C234.178 33.1878 242.834 39.237 248.246 46.6502C253.859 54.3425 255.47 62.7968 252.484 70.5499C249.329 78.7556 241.423 85.196 230 88.4152L182.406 101.775L163.793 64.4926Z" fill="#737373"/>
<path opacity="0.625" d="M216.07 42.8317C205.882 39.1508 194.134 41.1996 189.625 47.7717C184.803 54.7984 189.98 64.2719 201.482 68.421C212.983 72.5702 225.34 69.4476 228.809 61.9376C232.054 54.9019 226.258 46.5125 216.07 42.8317ZM165.575 64.1158C161.238 55.5021 162.034 46.8613 167.459 39.823C172.593 33.1575 181.301 28.6966 191.881 27.0406C202.433 25.4869 213.21 26.5894 223.247 30.2495C233.363 33.9055 241.724 39.7609 246.938 46.9265C252.333 54.3591 253.848 62.5139 250.929 69.9792C247.846 77.8628 240.202 84.0322 229.2 87.1014L183.558 99.785L165.575 64.1158Z" fill="#707070"/>
<path opacity="0.75" d="M216.562 41.976C205.639 38.0303 193.024 40.2174 188.157 47.254C182.934 54.8069 188.482 65.0078 200.879 69.4913C213.277 73.9748 226.572 70.577 230.279 62.4743C233.722 54.9173 227.482 45.9262 216.562 41.976ZM167.35 63.7359C163.149 55.4742 163.863 47.169 169.024 40.3875C173.926 33.9511 182.295 29.6295 192.48 28.0167C202.664 26.4978 213.071 27.5534 222.76 31.0883C232.532 34.6197 240.596 40.2811 245.601 47.211C250.78 54.3823 252.199 62.2409 249.342 69.4118C246.334 76.972 238.955 82.8719 228.373 85.7896L184.678 97.7985L167.35 63.7359Z" fill="#6D6D6D"/>
<path opacity="0.875" d="M217.044 41.1215C205.385 36.9077 191.907 39.2192 186.675 46.7355C181.053 54.8148 186.971 65.7571 200.262 70.5606C213.553 75.3641 227.796 71.706 231.73 63.0162C235.392 54.9328 228.698 45.3333 217.044 41.1215ZM169.125 63.3639C165.06 55.4528 165.69 47.483 170.603 40.9578C175.273 34.7504 183.292 30.5675 193.093 28.9986C202.91 27.5152 212.946 28.5239 222.288 31.933C231.714 35.3364 239.484 40.807 244.284 47.4952C249.245 54.4067 250.568 61.9659 247.777 68.852C244.843 76.0919 237.725 81.7191 227.565 84.4885L185.818 95.8213L169.125 63.3639Z" fill="#696969"/>
<path d="M217.533 40.2655C205.138 35.7869 190.794 38.2304 185.2 46.2172C179.174 54.8225 185.461 66.503 199.652 71.6301C213.843 76.7573 229.023 72.8349 233.191 63.5585C237.06 54.9495 229.925 44.7439 217.533 40.2655ZM170.901 62.9838C166.971 55.4232 167.518 47.7888 172.176 41.5211C176.616 35.5412 184.291 31.4973 193.701 29.9609C203.15 28.5138 212.816 29.4761 221.811 32.7597C230.892 36.0414 238.364 41.3086 242.963 47.7616C247.706 54.4117 248.935 61.6733 246.206 68.2713C243.344 75.1891 236.49 80.5437 226.752 83.1647L186.951 93.8213L170.901 62.9838Z" fill="#666666"/>
</g>
<path d="M150.513 71.8178C145.643 66.2952 142.508 59.4465 141.504 52.1378C140.5 44.8292 141.672 37.3887 144.871 30.7573C148.071 24.126 153.154 18.6015 159.479 14.8825C165.804 11.1635 173.086 9.41697 180.404 9.86381C187.723 10.3107 194.749 12.9308 200.594 17.3929C206.44 21.8549 210.842 27.9586 213.244 34.932C215.646 41.9054 215.94 49.4353 214.089 56.5697C212.239 63.704 208.326 70.1224 202.846 75.0131L175.108 99.7036L150.513 71.8178ZM178.919 35.1068C176.608 34.9654 174.309 35.5166 172.311 36.6907C170.314 37.8647 168.709 39.609 167.699 41.7028C166.688 43.7966 166.318 46.1459 166.636 48.4536C166.953 50.7612 167.943 52.9237 169.48 54.6673C171.018 56.411 173.034 57.6576 175.274 58.2494C177.514 58.8413 179.876 58.7518 182.063 57.9923C184.25 57.2329 186.163 55.8375 187.56 53.9827C188.957 52.128 189.775 49.8971 189.911 47.5722C190.09 44.4563 189.033 41.394 186.972 39.0571C184.912 36.7202 182.015 35.2996 178.919 35.1068Z" fill="#E4E4E5"/>
<path d="M202.1 25.7795C196.471 19.3963 188.557 15.5201 180.098 15.0036C171.638 14.4871 163.327 17.3726 156.993 23.0254C150.659 28.6781 146.82 36.6351 146.321 45.1458C145.822 53.6565 148.705 62.0238 154.333 68.407L175.529 92.4417L199.434 71.1607C202.572 68.3629 205.13 64.9694 206.963 61.1742C208.795 57.379 209.865 53.2564 210.113 49.042C210.361 44.8276 209.78 40.604 208.406 36.6126C207.031 32.6211 204.888 28.9399 202.1 25.7795ZM177.24 63.7623C173.917 63.5595 170.728 62.37 168.074 60.3442C165.42 58.3185 163.422 55.5475 162.332 52.3817C161.241 49.2158 161.108 45.7973 161.948 42.5585C162.788 39.3196 164.565 36.4059 167.052 34.1857C169.54 31.9656 172.628 30.5387 175.925 30.0855C179.221 29.6324 182.579 30.1733 185.574 31.6399C188.569 33.1065 191.065 35.4329 192.748 38.3249C194.431 41.2169 195.225 44.5446 195.029 47.8873C194.766 52.3696 192.744 56.5603 189.408 59.5375C186.072 62.5146 181.695 64.0344 177.24 63.7623Z" fill="url(#paint2_linear_1035_7408)"/>
<defs>
<linearGradient id="paint0_linear_1035_7408" x1="110.546" y1="76.928" x2="99.0657" y2="268.837" gradientUnits="userSpaceOnUse">
<stop stop-color="#793884"/>
<stop offset="0.591667" stop-color="#F6AB33"/>
</linearGradient>
<linearGradient id="paint1_linear_1035_7408" x1="47.5307" y1="195.324" x2="42.3937" y2="279.459" gradientUnits="userSpaceOnUse">
<stop offset="0.003" stop-color="#F49C0F"/>
<stop offset="1" stop-color="#F7B54B"/>
</linearGradient>
<linearGradient id="paint2_linear_1035_7408" x1="180.062" y1="15.7146" x2="175.363" y2="92.675" gradientUnits="userSpaceOnUse">
<stop stop-color="#712C7D"/>
<stop offset="0.997" stop-color="#995CA4"/>
</linearGradient>
</defs>
</svg>
