<svg width="576" height="449" viewBox="0 0 576 449" fill="none" xmlns="http://www.w3.org/2000/svg">
<g clip-path="url(#clip0_1035_7616)">
<path d="M252.597 160.903L220.817 235.788L295.525 217.211L252.597 160.903Z" fill="#E2E3E4"/>
<path d="M220.639 235.95L252.561 160.663L252.689 160.834L295.719 217.28L295.553 217.322L220.639 235.95ZM252.634 161.142L220.994 235.625L295.33 217.141L252.634 161.142Z" fill="white"/>
<path d="M295.525 217.212L324.899 156.999L252.597 160.903L295.525 217.212Z" fill="#DBDCDD"/>
<path d="M295.552 217.439L295.433 217.279L252.383 160.807L252.588 160.789L325.079 156.869L325.004 157.043L295.552 217.439ZM252.812 161L295.497 216.985L324.719 157.129L252.812 161Z" fill="white"/>
<path d="M324.899 156.998L297.154 140.449L252.597 160.903L324.899 156.998Z" fill="#C5C7C9"/>
<path d="M325.1 157.096L324.909 157.112L252.298 161.042L252.518 160.823L297.173 140.269L297.251 140.387L325.1 157.096ZM252.896 160.763L324.698 156.901L297.136 140.63L252.896 160.763Z" fill="white"/>
<path d="M324.899 156.999L373.557 221.038L295.525 217.212L324.899 156.999Z" fill="#C4C5C7"/>
<path d="M373.793 221.123L373.572 221.151L295.342 217.351L295.42 217.168L324.864 156.795L324.983 156.922L373.793 221.123ZM295.708 217.074L373.321 220.953L324.935 157.205L295.708 217.074Z" fill="white"/>
<path d="M373.56 221.052L330.413 288.857L295.525 217.211L373.56 221.052Z" fill="#BBBDBF"/>
<path d="M330.438 289.089L330.319 288.923L295.32 217.122L373.743 220.914L373.665 221.096L330.438 289.089ZM295.73 217.301L330.387 288.625L373.377 221.19L295.73 217.301Z" fill="white"/>
<path d="M295.541 217.294L273.648 290.021L220.817 235.788L295.541 217.294Z" fill="#D4D5D6"/>
<path d="M273.701 290.24L273.566 290.101L220.596 235.726L220.789 235.677L295.708 217.135L295.649 217.327L273.701 290.24ZM221.037 235.851L273.594 289.802L295.375 217.454L221.037 235.851Z" fill="white"/>
<path d="M220.817 235.789L273.648 290.021L238.557 293.153L220.817 235.789Z" fill="#DFE0E1"/>
<path d="M238.458 293.296L238.444 293.164L220.667 235.471L220.899 235.708L273.868 290.083L273.677 290.132L238.458 293.296ZM220.966 236.107L238.657 293.008L273.428 289.959L220.966 236.107Z" fill="white"/>
<path d="M238.557 293.153L273.648 290.021L298.175 327.302L238.557 293.153Z" fill="#C0C1C3"/>
<path d="M298.46 327.527L238.171 293.133L238.529 293.041L273.698 289.89L273.743 289.958L298.46 327.527ZM238.944 293.171L297.89 327.076L273.597 290.151L238.944 293.171Z" fill="white"/>
<path d="M273.648 290.021L330.413 288.857L298.175 327.302L273.648 290.021Z" fill="#A8ABAD"/>
<path d="M298.151 327.474L273.442 289.916L273.642 289.906L330.739 288.727L330.487 288.944L298.151 327.474ZM273.854 290.125L298.2 327.131L330.087 288.988L273.854 290.125Z" fill="white"/>
<path d="M330.413 288.857L353.013 294.424L298.175 327.302L330.413 288.857Z" fill="#929497"/>
<path d="M297.708 327.553L298.1 327.215L330.427 288.693L330.5 288.785L353.21 294.486L353.043 294.534L297.708 327.553ZM330.398 289.02L298.64 327.05L352.815 294.36L330.398 289.02Z" fill="white"/>
<path d="M396.946 260.851L353.013 294.424L330.438 288.984L396.946 260.851Z" fill="#9C9EA1"/>
<path d="M353.021 294.613L352.924 294.497L330.259 288.946L330.386 288.882L397.299 260.545L397.04 260.916L353.021 294.613ZM330.618 289.022L353.007 294.235L396.595 261.155L330.618 289.022Z" fill="white"/>
<path d="M185.953 242.671L220.817 235.789L238.557 293.153L185.953 242.671Z" fill="#EBECEC"/>
<path d="M238.718 293.575L185.758 242.594L220.917 235.653L220.93 235.778L238.718 293.575ZM186.151 242.748L238.397 292.729L220.717 235.924L186.151 242.748Z" fill="white"/>
<path d="M185.953 242.671L194.553 182.481L220.817 235.788L185.953 242.671Z" fill="#F1F1F2"/>
<path d="M220.985 235.871L185.818 242.815L185.841 242.655L194.492 182.099L220.985 235.871ZM186.09 242.527L220.65 235.705L194.614 182.863L186.09 242.527Z" fill="white"/>
<path d="M185.953 242.671L171.546 192.906L194.553 182.48L185.953 242.671Z" fill="#F7F7F8"/>
<path d="M186.067 242.687L185.839 242.665L171.432 192.871L171.448 192.846L194.744 181.949L186.067 242.687ZM171.658 192.941L186.174 240.32L194.36 183.012L171.658 192.941Z" fill="white"/>
<path d="M194.553 182.481L252.597 160.903L220.817 235.788L194.553 182.481Z" fill="#E8E8E9"/>
<path d="M220.833 236.082L220.713 235.839L194.4 182.43L194.501 182.379L252.8 160.671L252.705 160.939L220.833 236.082ZM194.705 182.531L220.799 235.492L252.395 161.13L194.705 182.531Z" fill="white"/>
<path d="M295.559 217.292L330.413 288.857L273.648 290.021L295.559 217.292Z" fill="#C1C3C5"/>
<path d="M330.628 288.96L330.418 288.971L273.492 290.143L273.538 289.988L295.516 217.036L295.652 217.224L330.628 288.96ZM273.804 289.899L330.197 288.753L295.602 217.546L273.804 289.899Z" fill="white"/>
<path d="M373.611 221.31L396.947 260.851L330.413 288.857L373.611 221.31Z" fill="#A8ABAD"/>
<path d="M330.186 289.098L330.308 288.812L373.625 220.984L373.72 221.273L397.086 260.907L396.998 260.952L330.186 289.098ZM373.597 221.635L330.64 288.616L396.807 260.793L373.597 221.635Z" fill="white"/>
<path d="M373.557 221.038L420.49 192.796L397.327 261.002L373.557 221.038Z" fill="#A1A3A5"/>
<path d="M397.356 261.459L373.41 220.951L420.493 192.796L420.605 192.817L397.356 261.459ZM373.706 221.123L397.299 260.545L420.346 192.94L373.706 221.123Z" fill="white"/>
<path d="M324.899 156.999L371.244 164.84L373.611 221.31L324.899 156.999Z" fill="#BBBDBF"/>
<path d="M373.849 221.733L373.527 221.388L324.665 156.913L371.327 164.714L371.354 164.809L373.849 221.733ZM325.134 157.084L373.374 220.888L371.162 164.967L325.134 157.084Z" fill="white"/>
<path d="M373.557 221.038L420.346 192.941L371.244 164.84L373.557 221.038Z" fill="#B0B2B4"/>
<path d="M420.556 193.016L373.476 221.17L370.985 164.346L420.556 193.016ZM373.639 220.904L420.136 192.865L371.502 165.334L373.639 220.904Z" fill="white"/>
<path d="M420.346 192.941L397.287 131.585L371.244 164.84L420.346 192.941Z" fill="#A8ABAD"/>
<path d="M420.829 193.706L420.258 193.011L370.92 164.626L397.37 131.489L397.391 131.536L420.829 193.706ZM371.565 165.054L419.864 192.176L397.206 131.68L371.565 165.054Z" fill="white"/>
<path d="M297.136 140.631L242.172 108.703L252.597 160.903L297.136 140.631Z" fill="#D0D2D3"/>
<path d="M252.513 161.067L252.485 160.925L242.01 108.477L297.385 140.642L252.513 161.067ZM242.334 108.929L252.681 160.739L296.887 140.618L242.334 108.929Z" fill="white"/>
<path d="M194.705 182.533L252.597 160.903L197.244 137.106L194.705 182.533Z" fill="#F1F1F2"/>
<path d="M194.581 182.701L197.139 136.937L197.289 137.001L252.904 160.91L252.638 161.01L194.581 182.701ZM197.349 137.275L194.829 182.364L252.29 160.896L197.349 137.275Z" fill="white"/>
<path d="M242.172 108.703L252.597 160.903L197.244 137.107L242.172 108.703Z" fill="#F7F7F8"/>
<path d="M252.752 161.094L197 137.126L197.182 137.009L242.251 108.517L252.752 161.094ZM197.488 137.087L252.442 160.713L242.092 108.888L197.488 137.087Z" fill="white"/>
<path d="M171.658 192.941L197.244 137.106L194.705 182.533L171.658 192.941Z" fill="white"/>
<path d="M171.427 193.17L171.555 192.893L197.392 136.509L194.816 182.608L194.753 182.637L171.427 193.17ZM197.096 137.703L171.889 192.711L194.595 182.457L197.096 137.703Z" fill="white"/>
<path d="M297.136 140.63L350.081 107.787L324.899 156.998L297.136 140.63Z" fill="#D7D8DA"/>
<path d="M324.946 157.159L296.915 140.633L350.37 107.473L324.946 157.159ZM297.356 140.628L324.853 156.838L349.792 108.1L297.356 140.628Z" fill="white"/>
<path d="M370.92 164.626L324.899 156.998L350.081 107.787L370.92 164.626Z" fill="#E2E3E4"/>
<path d="M324.665 157.205L350.107 107.484L371.061 164.697L370.959 164.734L324.665 157.205ZM350.054 108.088L325.134 156.791L370.779 164.557L350.054 108.088Z" fill="white"/>
<path d="M397.206 131.68L350.081 107.787L370.92 164.626L397.206 131.68Z" fill="#C1C3C5"/>
<path d="M370.846 164.77L370.809 164.659L349.891 107.561L350.131 107.683L397.5 131.7L370.846 164.77ZM350.271 108.009L370.996 164.479L396.909 131.66L350.271 108.009Z" fill="white"/>
<path d="M121.631 226.584L486.027 310.696" stroke="white" stroke-width="0.274091" stroke-miterlimit="10"/>
<path d="M486.027 310.696L294.463 41.395" stroke="white" stroke-width="0.274091" stroke-miterlimit="10"/>
<path d="M136.274 148.059L175.66 377.522" stroke="white" stroke-width="0.274091" stroke-miterlimit="10"/>
<path d="M175.66 377.521L486.027 310.696" stroke="white" stroke-width="0.274091" stroke-miterlimit="10"/>
<path d="M294.463 41.395L121.631 226.584" stroke="white" stroke-width="0.274091" stroke-miterlimit="10"/>
<path d="M136.274 148.059L121.631 226.585" stroke="white" stroke-width="0.274091" stroke-miterlimit="10"/>
<path d="M175.66 377.522L465.862 124.963" stroke="white" stroke-width="0.274091" stroke-miterlimit="10"/>
<path d="M465.862 124.963L294.463 41.395" stroke="white" stroke-width="0.274091" stroke-miterlimit="10"/>
<path d="M465.862 124.963L136.274 148.059" stroke="white" stroke-width="0.274091" stroke-miterlimit="10"/>
<path d="M175.66 377.521L294.463 41.395" stroke="white" stroke-width="0.274091" stroke-miterlimit="10"/>
<path d="M487.02 310.34C487.021 310.663 486.925 310.978 486.746 311.246C486.566 311.515 486.312 311.724 486.014 311.848C485.715 311.971 485.387 312.003 485.071 311.94C484.754 311.877 484.464 311.722 484.235 311.494C484.007 311.266 483.852 310.975 483.789 310.659C483.726 310.342 483.758 310.014 483.882 309.716C484.005 309.418 484.215 309.163 484.483 308.984C484.751 308.805 485.067 308.709 485.389 308.709C485.822 308.709 486.237 308.881 486.543 309.187C486.849 309.493 487.02 309.907 487.02 310.34Z" fill="white"/>
<path d="M467.271 124.963C467.271 125.285 467.175 125.601 466.996 125.869C466.816 126.137 466.562 126.347 466.264 126.47C465.966 126.594 465.637 126.626 465.321 126.563C465.004 126.5 464.714 126.345 464.486 126.117C464.257 125.888 464.102 125.598 464.039 125.281C463.976 124.965 464.008 124.637 464.132 124.338C464.256 124.04 464.465 123.786 464.733 123.606C465.001 123.427 465.317 123.331 465.64 123.332C465.854 123.331 466.066 123.374 466.264 123.456C466.462 123.538 466.641 123.658 466.793 123.809C466.944 123.961 467.065 124.14 467.146 124.338C467.228 124.536 467.271 124.748 467.271 124.963Z" fill="white"/>
<path d="M296.095 41.631C296.095 41.9537 295.999 42.2692 295.82 42.5375C295.641 42.8059 295.386 43.015 295.088 43.1385C294.79 43.262 294.461 43.2944 294.145 43.2314C293.828 43.1685 293.538 43.0131 293.31 42.785C293.081 42.5568 292.926 42.2661 292.863 41.9496C292.8 41.6331 292.832 41.305 292.956 41.0069C293.08 40.7088 293.289 40.454 293.557 40.2748C293.825 40.0956 294.141 39.9999 294.464 40C294.896 40 295.311 40.1718 295.617 40.4777C295.923 40.7836 296.095 41.1984 296.095 41.631Z" fill="white"/>
<path d="M137.906 148.096C137.906 148.419 137.81 148.734 137.631 149.003C137.452 149.271 137.197 149.48 136.899 149.603C136.6 149.727 136.272 149.759 135.956 149.696C135.64 149.633 135.349 149.478 135.121 149.25C134.893 149.021 134.737 148.731 134.674 148.414C134.611 148.098 134.644 147.77 134.767 147.472C134.891 147.174 135.1 146.919 135.368 146.74C135.637 146.56 135.952 146.465 136.275 146.465C136.489 146.465 136.701 146.507 136.899 146.589C137.097 146.671 137.277 146.791 137.428 146.943C137.58 147.094 137.7 147.274 137.782 147.472C137.864 147.67 137.906 147.882 137.906 148.096Z" fill="white"/>
<path d="M123.262 226.584C123.262 226.907 123.167 227.222 122.987 227.49C122.808 227.759 122.553 227.968 122.255 228.091C121.957 228.215 121.629 228.247 121.313 228.184C120.996 228.121 120.706 227.966 120.477 227.738C120.249 227.509 120.094 227.219 120.031 226.902C119.968 226.586 120 226.258 120.124 225.96C120.247 225.662 120.456 225.407 120.725 225.228C120.993 225.048 121.308 224.953 121.631 224.953C121.845 224.953 122.057 224.995 122.255 225.077C122.453 225.159 122.633 225.279 122.785 225.43C122.936 225.582 123.056 225.762 123.138 225.96C123.22 226.158 123.262 226.37 123.262 226.584Z" fill="white"/>
<path d="M177.292 377.369C177.291 377.692 177.196 378.007 177.016 378.275C176.837 378.543 176.582 378.752 176.284 378.876C175.986 378.999 175.658 379.031 175.342 378.968C175.026 378.906 174.735 378.75 174.507 378.522C174.279 378.294 174.124 378.003 174.061 377.687C173.998 377.371 174.03 377.043 174.154 376.745C174.277 376.447 174.486 376.192 174.754 376.013C175.023 375.833 175.338 375.738 175.66 375.738C175.875 375.738 176.087 375.78 176.285 375.862C176.483 375.944 176.662 376.064 176.814 376.216C176.965 376.367 177.086 376.547 177.167 376.745C177.249 376.943 177.292 377.155 177.292 377.369Z" fill="white"/>
<circle cx="124" cy="64" r="1" fill="#D9D9D9"/>
<circle cx="138" cy="329" r="1" fill="#D9D9D9"/>
<circle cx="259" cy="338" r="1" fill="#D9D9D9"/>
<circle cx="419" cy="75" r="1" fill="#D9D9D9"/>
</g>
<circle cx="511" cy="366" r="1" fill="#D9D9D9"/>
<circle cx="506" cy="448" r="1" fill="#D9D9D9"/>
<circle cx="554" cy="104" r="1" fill="#D9D9D9"/>
<circle cx="537" cy="20" r="1" fill="#D9D9D9"/>
<circle cx="225" cy="1" r="1" fill="#D9D9D9"/>
<circle cx="311" cy="22" r="1" fill="#D9D9D9"/>
<circle cx="395" cy="3" r="1" fill="#D9D9D9"/>
<circle cx="539" cy="182" r="1" fill="#D9D9D9"/>
<circle cx="575" cy="286" r="1" fill="#D9D9D9"/>
<circle cx="370" cy="428" r="1" fill="#D9D9D9"/>
<circle cx="180" cy="430" r="1" fill="#D9D9D9"/>
<circle cx="11" cy="432" r="1" fill="#D9D9D9"/>
<circle cx="77" cy="386" r="1" fill="#D9D9D9"/>
<circle cx="1" cy="342" r="1" fill="#D9D9D9"/>
<circle cx="75" cy="275" r="1" fill="#D9D9D9"/>
<circle cx="65" cy="214" r="1" fill="#D9D9D9"/>
<circle cx="40" cy="120" r="1" fill="#D9D9D9"/>
<circle cx="128" cy="192" r="1" fill="#D9D9D9"/>
<circle cx="79" cy="56" r="1" fill="#D9D9D9"/>
<defs>
<clipPath id="clip0_1035_7616">
<rect width="367.02" height="339" fill="white" transform="translate(120 40)"/>
</clipPath>
</defs>
</svg>
