<svg width="136" height="39" viewBox="0 0 136 39" fill="none" xmlns="http://www.w3.org/2000/svg">
<g clip-path="url(#clip0_1101_1560)">
<path d="M29.8784 4.3969H30.0865C31.7538 4.4375 33.3376 5.14242 34.4928 6.35803C35.6479 7.57363 36.2807 9.20135 36.2532 10.8864C36.2258 12.5715 35.5403 14.1773 34.3462 15.3538C33.1521 16.5303 31.5461 17.1821 29.8784 17.1673H23.5545V10.7873C23.5539 9.94853 23.717 9.11784 24.0344 8.34277C24.3518 7.56771 24.8173 6.86349 25.4043 6.27036C25.9912 5.67723 26.6881 5.20685 27.4551 4.88611C28.2221 4.56536 29.0442 4.40056 29.8743 4.40111L29.8784 4.3969ZM29.8743 2.16162C27.6115 2.16162 25.4414 3.06995 23.8413 4.6868C22.2413 6.30365 21.3424 8.49656 21.3424 10.7831V19.0051C21.3424 19.1122 21.3845 19.2149 21.4594 19.2906C21.5344 19.3663 21.636 19.4088 21.742 19.4088H29.8784C30.9989 19.4273 32.1119 19.2227 33.154 18.8065C34.1962 18.3903 35.147 17.7708 35.9522 16.9833C36.7574 16.1958 37.4012 15.2557 37.8469 14.2168C38.2926 13.1779 38.5314 12.0604 38.5497 10.9282C38.568 9.79603 38.3655 8.67128 37.9536 7.61819C37.5418 6.5651 36.9287 5.60429 36.1494 4.79063C35.3701 3.97697 34.4398 3.32638 33.4117 2.87602C32.3835 2.42565 31.2777 2.18433 30.1573 2.16582C30.0636 2.16582 29.9721 2.16582 29.8784 2.16582L29.8743 2.16162Z" fill="white"/>
<path d="M10.671 2.23949H10.6897C14.1649 2.23949 16.9908 5.1729 16.9908 8.75819V15.0161H10.671C8.99484 15.0161 7.38737 14.3433 6.20218 13.1457C5.01698 11.948 4.35114 10.3236 4.35114 8.62991C4.35114 6.93618 5.01698 5.31182 6.20218 4.11417C7.38737 2.91652 8.99484 2.24369 10.671 2.24369V2.23949ZM10.671 0.0042033C8.40817 0.0042033 6.23806 0.912535 4.63803 2.52938C3.03799 4.14623 2.1391 6.33915 2.1391 8.62571C2.1391 10.9123 3.03799 13.1052 4.63803 14.722C6.23806 16.3389 8.40817 17.2472 10.671 17.2472H18.8074C18.9134 17.2472 19.015 17.2047 19.09 17.129C19.1649 17.0533 19.207 16.9506 19.207 16.8435V8.75398C19.207 3.97851 15.4218 0.0147196 10.698 0L10.671 0.0042033Z" fill="white"/>
<path d="M14.8579 21.6482V28.0302C14.8583 29.0102 14.6355 29.9771 14.2068 30.8561C13.7781 31.7352 13.155 32.5027 12.3858 33.0995C11.6166 33.6963 10.7218 34.1062 9.77066 34.2976C8.81954 34.489 7.83761 34.4567 6.90082 34.2032C5.96404 33.9497 5.09753 33.4818 4.36833 32.8358C3.63912 32.1897 3.06678 31.3828 2.69558 30.4775C2.32438 29.5721 2.16428 28.5926 2.22766 27.6148C2.29104 26.6369 2.5762 25.6868 3.06108 24.8381C3.33827 24.3541 3.67687 23.9088 4.06826 23.5134C4.6537 22.9188 5.35001 22.4475 6.1169 22.1266C6.88378 21.8057 7.70602 21.6417 8.53604 21.644H14.8579V21.6482ZM16.6725 19.4087H8.53604C7.41531 19.4073 6.30534 19.6295 5.26976 20.0625C4.23418 20.4955 3.29338 21.1309 2.50131 21.9321C1.97464 22.4662 1.51859 23.067 1.14454 23.7195C0.493284 24.8649 0.111214 26.1462 0.0278171 27.4645C-0.0555793 28.7828 0.161929 30.1029 0.663553 31.3227C1.16518 32.5426 1.9375 33.6297 2.9209 34.5001C3.9043 35.3704 5.07248 36.0008 6.33525 36.3425C7.59802 36.6843 8.92162 36.7282 10.2039 36.4709C11.4861 36.2137 12.6927 35.6621 13.7305 34.8588C14.7683 34.0555 15.6095 33.022 16.1893 31.838C16.769 30.654 17.0718 29.3512 17.0742 28.0302V19.8082C17.0731 19.7015 17.0302 19.5996 16.9549 19.5247C16.8797 19.4499 16.7781 19.4081 16.6725 19.4087Z" fill="white"/>
<path d="M27.7428 23.8059C28.9927 23.8059 30.2146 24.1804 31.2539 24.8822C32.2932 25.5839 33.1032 26.5813 33.5815 27.7482C34.0599 28.9151 34.185 30.1992 33.9412 31.438C33.6973 32.6768 33.0954 33.8147 32.2116 34.7079C31.3277 35.601 30.2016 36.2092 28.9757 36.4556C27.7498 36.7021 26.4791 36.5756 25.3243 36.0922C24.1695 35.6089 23.1825 34.7903 22.488 33.7401C21.7936 32.6899 21.423 31.4552 21.423 30.1921V23.8059H27.7428ZM27.7428 21.5664H19.6C19.5474 21.5661 19.4952 21.5764 19.4465 21.5965C19.3978 21.6167 19.3535 21.6464 19.3162 21.6839C19.2789 21.7214 19.2492 21.766 19.229 21.8152C19.2088 21.8643 19.1984 21.9169 19.1984 21.9701V30.1921C19.1984 31.8973 19.6988 33.5642 20.6363 34.982C21.5738 36.3998 22.9063 37.5048 24.4653 38.1574C26.0243 38.8099 27.7398 38.9806 29.3948 38.648C31.0498 38.3153 32.57 37.4942 33.7632 36.2884C34.9564 35.0827 35.769 33.5465 36.0982 31.8741C36.4274 30.2017 36.2585 28.4682 35.6127 26.8928C34.9669 25.3174 33.8734 23.9709 32.4703 23.0236C31.0673 22.0763 29.4177 21.5706 27.7303 21.5706L27.7428 21.5664Z" fill="white"/>
<path d="M65.4204 10.5015H62.0805C61.9908 10.5015 61.9182 10.5749 61.9182 10.6655V30.7704C61.9182 30.861 61.9908 30.9344 62.0805 30.9344H65.4204C65.51 30.9344 65.5827 30.861 65.5827 30.7704V10.6655C65.5827 10.5749 65.51 10.5015 65.4204 10.5015Z" fill="white"/>
<path d="M71.7821 30.2827C70.4212 29.8621 69.3342 29.3118 68.5213 28.6319C68.4937 28.6092 68.4743 28.578 68.4661 28.543C68.4578 28.5081 68.4611 28.4713 68.4755 28.4385L69.4307 26.2747C69.4624 26.2053 69.5088 26.1438 69.5666 26.0945C69.6243 26.0452 69.6921 26.0093 69.7651 25.9892C69.838 25.9692 69.9145 25.9655 69.989 25.9785C70.0635 25.9915 70.1343 26.0208 70.1964 26.0644C70.9599 26.5706 71.7854 26.9743 72.652 27.2651C73.7849 27.6665 74.9765 27.8734 76.1771 27.877C77.6379 27.877 78.7283 27.6401 79.4483 27.1663C80.1683 26.6925 80.529 26.0679 80.5304 25.2927C80.5368 25.0283 80.4861 24.7657 80.3819 24.5231C80.2777 24.2806 80.1224 24.0638 79.9269 23.888C79.4812 23.4958 78.9596 23.2015 78.3953 23.0238C77.778 22.8149 76.9359 22.578 75.8691 22.313C74.6347 22.0344 73.4196 21.6748 72.2316 21.2364C71.3113 20.8823 70.4915 20.3045 69.8448 19.5541C69.1789 18.7859 68.8466 17.7499 68.848 16.4462C68.8377 15.3808 69.1459 14.3372 69.7324 13.4518C70.322 12.5532 71.2112 11.8389 72.4002 11.309C73.5891 10.7791 75.0457 10.5142 76.7701 10.5142C77.9636 10.5137 79.1523 10.6663 80.3077 10.9684C81.3301 11.2215 82.3064 11.6367 83.2003 12.1985C83.2342 12.2199 83.2591 12.2532 83.2702 12.292C83.2814 12.3308 83.2779 12.3724 83.2606 12.4088L82.2368 14.9553C82.228 14.9766 82.2148 14.9958 82.1981 15.0116C82.1814 15.0274 82.1616 15.0395 82.14 15.047C82.1184 15.0546 82.0955 15.0574 82.0727 15.0554C82.0499 15.0533 82.0278 15.0465 82.0079 15.0352C81.2088 14.575 80.3569 14.2156 79.4712 13.9649C78.5855 13.7072 77.6689 13.5734 76.7472 13.5674C75.3045 13.5674 74.2328 13.8135 73.5322 14.3055C73.205 14.5129 72.9362 14.802 72.7518 15.1449C72.5673 15.4878 72.4735 15.873 72.4792 16.2632C72.4711 16.5257 72.5211 16.7867 72.6255 17.0271C72.7299 17.2676 72.8861 17.4815 73.0827 17.6532C73.5303 18.0387 74.0506 18.3284 74.6122 18.5048C75.2295 18.7137 76.0723 18.9499 77.1405 19.2135C78.3623 19.4828 79.5639 19.8384 80.7364 20.2775C81.6575 20.6368 82.4802 21.2136 83.1357 21.9597C83.8016 22.7167 84.1346 23.7387 84.1346 25.0256C84.1454 26.0868 83.8362 27.1261 83.2481 28.0053C82.6585 28.8955 81.7651 29.6048 80.5679 30.1333C79.3706 30.6619 77.9098 30.9268 76.1854 30.9282C74.694 30.9357 73.2099 30.7181 71.7821 30.2827Z" fill="white"/>
<path d="M91.1205 18.1933C90.4269 18.806 90.08 19.7074 90.08 20.8976V22.2728H96.8348C96.8778 22.2728 96.9191 22.2901 96.9496 22.3208C96.98 22.3516 96.9971 22.3933 96.9971 22.4368V24.63C96.9971 24.6735 96.98 24.7153 96.9496 24.746C96.9191 24.7768 96.8778 24.7941 96.8348 24.7941H90.0759V30.9343H87.1293V20.8976C87.1293 18.9588 87.7452 17.4349 88.9772 16.3261C90.2091 15.2172 91.9057 14.6634 94.0671 14.6648C94.923 14.6584 95.7764 14.7587 96.608 14.9634C97.2934 15.1279 97.9502 15.3966 98.5557 15.7604C98.5897 15.7818 98.6151 15.8146 98.6273 15.8532C98.6395 15.8917 98.6377 15.9334 98.6223 15.9707L97.8128 18.0735C97.8041 18.0959 97.7905 18.116 97.773 18.1325C97.7556 18.1489 97.7348 18.1612 97.7121 18.1684C97.6893 18.1757 97.6653 18.1777 97.6417 18.1744C97.6181 18.1711 97.5955 18.1625 97.5756 18.1492C96.6655 17.5674 95.5418 17.2758 94.2045 17.2744C92.8435 17.2758 91.8156 17.5821 91.1205 18.1933Z" fill="white"/>
<path d="M134.375 30.9345C135.272 30.9345 136 30.1992 136 29.2922C136 28.3852 135.272 27.6499 134.375 27.6499C133.477 27.6499 132.749 28.3852 132.749 29.2922C132.749 30.1992 133.477 30.9345 134.375 30.9345Z" fill="white"/>
<path d="M109.035 27.2946L110.334 28.8276C110.358 28.8572 110.371 28.8944 110.371 28.9327C110.371 28.971 110.358 29.0082 110.334 29.0379C109.802 29.6531 109.13 30.1287 108.375 30.4236C107.475 30.7721 106.517 30.9434 105.554 30.9283C104.333 30.9575 103.123 30.6846 102.031 30.1334C101.048 29.6309 100.23 28.8525 99.675 27.8918C99.1125 26.9031 98.8249 25.7791 98.8426 24.6388C98.8257 23.5091 99.1042 22.3949 99.65 21.4089C100.172 20.467 100.944 19.6908 101.879 19.1673C102.865 18.6193 103.976 18.3403 105.102 18.3577C106.182 18.3446 107.248 18.601 108.207 19.1042C109.13 19.593 109.899 20.334 110.425 21.2427C110.966 22.1893 111.248 23.264 111.243 24.357C111.244 24.3961 111.231 24.4342 111.206 24.4646C111.182 24.495 111.148 24.5157 111.11 24.5231L102.141 26.2958C102.117 26.3006 102.094 26.3108 102.074 26.3258C102.054 26.3408 102.038 26.3602 102.026 26.3825C102.015 26.4047 102.009 26.4293 102.008 26.4543C102.007 26.4794 102.012 26.5043 102.022 26.5271C102.301 27.1255 102.757 27.6215 103.327 27.9465C104.029 28.3296 104.819 28.5195 105.616 28.4974C106.792 28.5297 107.933 28.094 108.794 27.2841C108.809 27.2673 108.829 27.2542 108.85 27.2455C108.871 27.2368 108.894 27.2329 108.917 27.2339C108.94 27.2349 108.962 27.2408 108.982 27.2513C109.003 27.2618 109.021 27.2765 109.035 27.2946ZM102.565 21.6906C101.915 22.3832 101.589 23.3112 101.589 24.4748V24.4958L108.29 23.1942C108.313 23.1898 108.334 23.1808 108.353 23.1676C108.372 23.1543 108.388 23.1373 108.4 23.1175C108.412 23.0977 108.419 23.0755 108.422 23.0525C108.425 23.0295 108.424 23.0061 108.417 22.9839C108.217 22.3292 107.817 21.7552 107.275 21.3437C106.647 20.876 105.882 20.6339 105.102 20.6561C104.631 20.6371 104.161 20.7196 103.724 20.898C103.286 21.0763 102.892 21.3465 102.565 21.6906Z" fill="white"/>
<path d="M114.97 30.5537C114.213 30.3619 113.49 30.0527 112.827 29.6369C112.794 29.6142 112.771 29.5804 112.761 29.5417C112.752 29.503 112.757 29.462 112.775 29.4266L113.722 27.5341C113.731 27.5138 113.746 27.4958 113.763 27.4813C113.78 27.4669 113.8 27.4562 113.822 27.4501C113.843 27.444 113.866 27.4424 113.888 27.4457C113.91 27.4489 113.931 27.4568 113.95 27.4689C114.518 27.8157 115.13 28.0811 115.769 28.2574C116.505 28.4758 117.267 28.5884 118.033 28.5918C119.731 28.5918 120.581 28.1397 120.582 27.2355C120.588 27.0343 120.527 26.8369 120.41 26.6744C120.292 26.5119 120.125 26.3934 119.933 26.3376C119.256 26.1108 118.559 25.9496 117.852 25.856C117.025 25.741 116.208 25.5639 115.407 25.3261C114.779 25.1271 114.214 24.7645 113.769 24.2747C113.306 23.7771 113.074 23.0831 113.074 22.1929C113.065 21.6428 113.193 21.0992 113.447 20.6125C113.701 20.1258 114.072 19.7118 114.527 19.4088C115.488 18.7079 116.789 18.3574 118.429 18.3574C119.269 18.3592 120.107 18.4558 120.926 18.6455C121.592 18.785 122.236 19.0178 122.838 19.3373C122.873 19.358 122.899 19.3911 122.91 19.4299C122.922 19.4688 122.92 19.5107 122.903 19.5476L121.956 21.4401C121.946 21.4594 121.932 21.4766 121.916 21.4905C121.899 21.5044 121.88 21.5148 121.86 21.5211C121.839 21.5273 121.817 21.5294 121.796 21.527C121.775 21.5247 121.754 21.518 121.735 21.5074C120.715 20.9426 119.569 20.6529 118.406 20.6663C117.573 20.6663 116.949 20.7946 116.506 21.0469C116.063 21.2992 115.857 21.6336 115.857 22.0457C115.851 22.2629 115.916 22.4759 116.042 22.6524C116.167 22.8288 116.346 22.9591 116.552 23.0236C117.248 23.2765 117.968 23.4575 118.701 23.564C119.509 23.6807 120.308 23.8578 121.09 24.0939C121.702 24.2859 122.255 24.6343 122.695 25.1053C123.143 25.5806 123.367 26.2549 123.367 27.1282C123.367 28.2792 122.874 29.1988 121.887 29.8871C120.901 30.5754 119.558 30.9203 117.858 30.9217C116.884 30.9304 115.912 30.8066 114.97 30.5537Z" fill="white"/>
<path d="M131.87 30.1061C131.511 30.3985 131.097 30.6132 130.652 30.7369C130.16 30.8773 129.651 30.9481 129.14 30.9472C127.804 30.9472 126.772 30.5967 126.045 29.8958C125.318 29.1948 124.954 28.168 124.953 26.8152V15.9479C124.952 15.9261 124.956 15.9046 124.964 15.8845C124.972 15.8643 124.984 15.846 125 15.8305C125.015 15.8151 125.033 15.8028 125.052 15.7944C125.072 15.786 125.094 15.7817 125.115 15.7817H127.635C127.657 15.7817 127.678 15.786 127.698 15.7944C127.717 15.8028 127.735 15.8151 127.751 15.8305C127.766 15.846 127.778 15.8643 127.786 15.8845C127.794 15.9046 127.798 15.9261 127.797 15.9479V18.4229C127.797 18.4664 127.814 18.5081 127.845 18.5388C127.875 18.5696 127.917 18.5869 127.96 18.5869H131.05V20.881H127.96C127.917 20.881 127.875 20.8983 127.845 20.9291C127.814 20.9598 127.797 21.0016 127.797 21.0451V26.7226C127.797 27.3198 127.945 27.7761 128.241 28.0916C128.404 28.2543 128.6 28.3804 128.815 28.4616C129.03 28.5428 129.26 28.5772 129.489 28.5626C130.062 28.5832 130.624 28.4042 131.081 28.0558L131.87 30.1061Z" fill="white"/>
<path d="M44.805 17.1272C44.1797 18.2599 43.8623 19.5398 43.8852 20.8366C43.8852 22.3001 44.1918 23.5618 44.805 24.6216C45.3754 25.6398 46.2225 26.4716 47.2459 27.0188C48.2724 27.5631 49.4163 27.8419 50.5754 27.8305C50.8085 27.8305 51.0436 27.8305 51.2705 27.7969C51.8651 27.7494 52.4516 27.6272 53.0164 27.4331C53.7492 27.1864 54.4318 26.8073 55.0307 26.3144C55.0496 26.2984 55.0648 26.2785 55.0752 26.256C55.0856 26.2334 55.091 26.2089 55.0911 26.184V24.1485C55.0911 24.105 55.074 24.0633 55.0435 24.0325C55.0131 24.0018 54.9718 23.9845 54.9288 23.9845H50.9063C50.8848 23.9845 50.8635 23.9802 50.8437 23.9718C50.8239 23.9634 50.8059 23.9512 50.7908 23.9357C50.7757 23.9202 50.7638 23.9019 50.7557 23.8818C50.7477 23.8616 50.7437 23.8401 50.744 23.8184V20.6641C50.744 20.6206 50.7611 20.5789 50.7915 20.5482C50.822 20.5174 50.8632 20.5001 50.9063 20.5001H58.3852C58.4283 20.5001 58.4695 20.5174 58.5 20.5482C58.5304 20.5789 58.5475 20.6206 58.5475 20.6641V30.7639C58.5475 30.8074 58.5304 30.8491 58.5 30.8799C58.4695 30.9107 58.4283 30.928 58.3852 30.928H55.2638C55.2207 30.928 55.1795 30.9107 55.149 30.8799C55.1186 30.8491 55.1015 30.8074 55.1015 30.7639V30.0952C55.1014 30.0667 55.094 30.0386 55.0799 30.0138C55.0659 29.9891 55.0456 29.9684 55.0212 29.954C54.9969 29.9395 54.9692 29.9318 54.9409 29.9315C54.9126 29.9312 54.8848 29.9383 54.8601 29.9523C54.5633 30.1149 54.2552 30.2554 53.9382 30.3728C52.7544 30.8038 51.5027 31.0133 50.2446 30.991C48.4982 31.0114 46.7734 30.5992 45.2212 29.7903C43.7035 29 42.4359 27.7949 41.5629 26.3123C40.65 24.7913 40.1943 22.9751 40.1957 20.8639C40.167 18.9787 40.6437 17.1207 41.5753 15.487C42.4836 13.9139 43.8101 12.6296 45.4043 11.7798C47.0955 10.8806 48.983 10.4244 50.8938 10.4529C52.4392 10.4317 53.974 10.7131 55.4136 11.2814C56.6774 11.7871 57.8099 12.5783 58.7244 13.5945C58.7532 13.626 58.7692 13.6673 58.7692 13.7102C58.7692 13.7531 58.7532 13.7943 58.7244 13.8258L56.6435 15.8866C56.6132 15.9159 56.573 15.9322 56.5311 15.9322C56.4892 15.9322 56.4489 15.9159 56.4187 15.8866C55.7166 15.1837 54.8826 14.6296 53.9656 14.2569C53.0486 13.8843 52.0672 13.7005 51.079 13.7165C49.7866 13.6926 48.5096 14.0024 47.3687 14.6165C46.2951 15.1898 45.4057 16.0608 44.805 17.1272Z" fill="white"/>
</g>
<defs>
<clipPath id="clip0_1101_1560">
<rect width="136" height="38.8178" fill="white"/>
</clipPath>
</defs>
</svg>
